<svg xmlns="http://www.w3.org/2000/svg" viewBox="0 0 64 80" x="0px" y="0px"><title>bathroom, bathtub, hotel, shower, bath</title><g><path d="M63,2a1,1,0,0,0-1,1V4H58V3.5a3.5,3.5,0,0,0-7,0V4H39V3.5a3.5,3.5,0,0,0-7,0V4H2V2A1,1,0,0,0,0,2V6A1,1,0,0,0,2,6H32V9H27a1,1,0,0,0,0,2h2V38H25.9092a6.048,6.048,0,0,0-6.01-4.999A5,5,0,0,0,10,34c0,.1377.0059.2744.0166.41A5.0394,5.0394,0,0,0,7.1152,38H5V13.5a3.5,3.5,0,0,1,7,0v1.6011A5.0083,5.0083,0,0,0,8,20v1a1,1,0,0,0,1,1h8a1,1,0,0,0,1-1V20a5.0083,5.0083,0,0,0-4-4.8989V13.5a5.5,5.5,0,0,0-11,0V38H2a2.0059,2.0059,0,0,0-2,2v2a2.0059,2.0059,0,0,0,2,2,2.0059,2.0059,0,0,1,2,2v7a7.0046,7.0046,0,0,0,6,6.92V63a1,1,0,0,0,1,1h4a1,1,0,0,0,.8945-.5527L17.6182,60H46.3818l1.7237,3.4473A1,1,0,0,0,49,64h4a1,1,0,0,0,1-1V59.92A7.0046,7.0046,0,0,0,60,53V46a2.0146,2.0146,0,0,1,2-2,2.0023,2.0023,0,0,0,2-2V40a2.0023,2.0023,0,0,0-2-2H56V11h2a1,1,0,0,0,0-2H53V6h9V7a1,1,0,0,0,2,0V3A1,1,0,0,0,63,2ZM16,20H10a3,3,0,0,1,6,0ZM34,3.5a1.5,1.5,0,0,1,3,0V4H34ZM39,11V46.5a1.5,1.5,0,0,1-3,0V11Zm5,0V46.5a1.5,1.5,0,0,1-3,0V11Zm5,0V46.5a1.5,1.5,0,0,1-3,0V11ZM34,11V46.5a1.5,1.5,0,0,1-3,0V11ZM11.3623,36.0674a1,1,0,0,0,.749-1.2539A2.895,2.895,0,0,1,12,34a3,3,0,0,1,6,0v.1a1,1,0,0,0,1.2148.9766A3.6958,3.6958,0,0,1,20,35a4.0062,4.0062,0,0,1,3.873,3H9.1738A3.0152,3.0152,0,0,1,11.3623,36.0674ZM2,40H29v2H2ZM14.3818,62H12V60h3.3818ZM52,62H49.6182l-1-2H52Zm6-16v7a5.0018,5.0018,0,0,1-5,5H11a5.0018,5.0018,0,0,1-5-5V46a3.9894,3.9894,0,0,0-.54-2H29v2.5a3.4947,3.4947,0,0,0,6,2.4417,3.482,3.482,0,0,0,5,0,3.482,3.482,0,0,0,5,0,3.482,3.482,0,0,0,5,0A3.4947,3.4947,0,0,0,56,46.5V44h2.54A3.9711,3.9711,0,0,0,58,46Zm4-5.9971V42H56V40.0005ZM54,46.5a1.5,1.5,0,0,1-3,0V11h3ZM51,9H34V6H51Zm2-5.5a1.5,1.5,0,0,1,3,0V4H53Z"/></g><text x="0" y="79" fill="#000000" font-size="5px" font-weight="bold" font-family="'Helvetica Neue', Helvetica, Arial-Unicode, Arial, Sans-serif">Created by Kmg Design</text><text x="0" y="84" fill="#000000" font-size="5px" font-weight="bold" font-family="'Helvetica Neue', Helvetica, Arial-Unicode, Arial, Sans-serif">from the Noun Project</text></svg>