<svg xmlns="http://www.w3.org/2000/svg" viewBox="0 0 64 80" x="0px" y="0px"><title>kitchen
,cabinet
,furniture
,cabinets
</title><g><path d="M61,8H3A1,1,0,0,0,2,9V19a1,1,0,0,0,1,1h7V33a1,1,0,0,0,1,1v4.756a3.82,3.82,0,0,1-.479,1.847L7.051,46.85A8.36,8.36,0,0,0,6,50.9a13.369,13.369,0,0,0,3.9,9.4,5.8,5.8,0,0,0,8.2,0A13.188,13.188,0,0,0,22,50.9a8.355,8.355,0,0,0-1.05-4.05L17.479,40.6A3.82,3.82,0,0,1,17,38.756V34a1,1,0,0,0,1-1V20H28V33a1,1,0,0,0,1,1V45.582A8.006,8.006,0,0,0,24,53v8a1,1,0,0,0,1,1H39a1,1,0,0,0,1-1V53a8.006,8.006,0,0,0-5-7.418V34a1,1,0,0,0,1-1V20H46V33a1,1,0,0,0,1,1h2v7a1,1,0,0,0,2,0V34h2a1,1,0,0,0,1-1V20h7a1,1,0,0,0,1-1V9A1,1,0,0,0,61,8ZM16,32H12V16a1.986,1.986,0,0,1,.586-1.414,2.047,2.047,0,0,1,2.828,0A1.986,1.986,0,0,1,16,16Zm-.27,9.573L19.2,47.822A6.362,6.362,0,0,1,20,50.9a11.207,11.207,0,0,1-3.316,7.989,3.9,3.9,0,0,1-5.37,0A11.355,11.355,0,0,1,8,50.9a6.368,6.368,0,0,1,.8-3.084l3.471-6.247A5.812,5.812,0,0,0,13,38.756V34h2v4.756A5.812,5.812,0,0,0,15.73,41.573ZM34,32H30V16a1.986,1.986,0,0,1,.586-1.414,2.047,2.047,0,0,1,2.828,0A1.986,1.986,0,0,1,34,16Zm4,21v7H26V53a6,6,0,1,1,12,0Zm-5-7.931a7.281,7.281,0,0,0-2,0V34h2ZM52,32H48V16a1.986,1.986,0,0,1,.586-1.414,2.047,2.047,0,0,1,2.828,0A1.986,1.986,0,0,1,52,16Zm8-14H54V16a3.975,3.975,0,0,0-1.172-2.828,4.093,4.093,0,0,0-5.656,0A3.975,3.975,0,0,0,46,16v2H36V16a3.975,3.975,0,0,0-1.172-2.828,4.093,4.093,0,0,0-5.656,0A3.975,3.975,0,0,0,28,16v2H18V16a3.975,3.975,0,0,0-1.172-2.828,4.093,4.093,0,0,0-5.656,0A3.975,3.975,0,0,0,10,16v2H4V10H60Z"/><path d="M34,58a1,1,0,0,0,1-1V53a1,1,0,0,0-2,0v4A1,1,0,0,0,34,58Z"/><path d="M30,52a1,1,0,0,0-1,1v4a1,1,0,0,0,2,0V53A1,1,0,0,0,30,52Z"/><path d="M44,49a1,1,0,0,0,1,1H55a1,1,0,0,0,0-2H45A1,1,0,0,0,44,49Z"/><path d="M43,53a1,1,0,0,0,1,1H56a1,1,0,0,0,0-2H44A1,1,0,0,0,43,53Z"/><path d="M44,58H56a1,1,0,0,0,0-2H44a1,1,0,0,0,0,2Z"/><path d="M45,60a1,1,0,0,0,0,2H55a1,1,0,0,0,0-2Z"/><path d="M52,46a1,1,0,0,0,0-2H48a1,1,0,0,0,0,2Z"/></g><text x="0" y="79" fill="#000000" font-size="5px" font-weight="bold" font-family="'Helvetica Neue', Helvetica, Arial-Unicode, Arial, Sans-serif">Created by pongsakorn</text><text x="0" y="84" fill="#000000" font-size="5px" font-weight="bold" font-family="'Helvetica Neue', Helvetica, Arial-Unicode, Arial, Sans-serif">from the Noun Project</text></svg>