<svg xmlns="http://www.w3.org/2000/svg" viewBox="0 0 64 80" x="0px" y="0px"><g><rect x="14" y="46" width="18" height="4"/><path d="M10,30a13,13,0,0,1,26,0v2.35A5.976,5.976,0,0,1,38,32V30A15,15,0,0,0,8,30v2a5.976,5.976,0,0,1,2,.35Z"/><path d="M32,38a5.983,5.983,0,0,1,2-4.46V30a11,11,0,0,0-22,0v3.54A5.983,5.983,0,0,1,14,38v6H32ZM17.71,41.71a.99.99,0,0,1-1.09.21,1.155,1.155,0,0,1-.33-.21.99.99,0,0,1-.21-1.09,1.155,1.155,0,0,1,.21-.33,1.047,1.047,0,0,1,1.42,0,1.155,1.155,0,0,1,.21.33.99.99,0,0,1-.21,1.09Zm.21-8.33a.9.9,0,0,1-.54.54.942.942,0,0,1-.76,0,1.155,1.155,0,0,1-.33-.21,1.169,1.169,0,0,1-.21-.33.943.943,0,0,1,0-.76,1.032,1.032,0,0,1,.21-.33,1,1,0,0,1,1.09-.21,1.169,1.169,0,0,1,.33.21,1.155,1.155,0,0,1,.21.33.942.942,0,0,1,0,.76Zm0-8a1.169,1.169,0,0,1-.21.33,1.014,1.014,0,0,1-1.42,0,1.169,1.169,0,0,1-.21-.33.943.943,0,0,1,0-.76,1.032,1.032,0,0,1,.21-.33,1.047,1.047,0,0,1,1.42,0,1.032,1.032,0,0,1,.21.33.942.942,0,0,1,0,.76Zm2.79,12.33A1.011,1.011,0,0,1,20,38a.852.852,0,0,1-.38-.08,1.155,1.155,0,0,1-.33-.21.99.99,0,0,1-.21-1.09,1.032,1.032,0,0,1,.21-.33,1.7,1.7,0,0,1,.149-.12.782.782,0,0,1,.181-.09.636.636,0,0,1,.18-.06.852.852,0,0,1,.389,0,.609.609,0,0,1,.191.06.568.568,0,0,1,.17.09,1,1,0,0,1,.16.12,1.032,1.032,0,0,1,.21.33.99.99,0,0,1-.21,1.09Zm.21-8.33a1.169,1.169,0,0,1-.21.33.99.99,0,0,1-1.09.21,1.155,1.155,0,0,1-.33-.21,1.169,1.169,0,0,1-.21-.33.942.942,0,0,1,0-.76,1.032,1.032,0,0,1,.21-.33,1.047,1.047,0,0,1,1.42,0,1.032,1.032,0,0,1,.21.33.943.943,0,0,1,0,.76Zm2.79,12.33A1,1,0,0,1,22,41a.838.838,0,0,1,.08-.38,1.155,1.155,0,0,1,.21-.33,1.7,1.7,0,0,1,.149-.12.782.782,0,0,1,.181-.09.636.636,0,0,1,.18-.06.852.852,0,0,1,.389,0,.609.609,0,0,1,.191.06.568.568,0,0,1,.17.09,1,1,0,0,1,.16.12,1.155,1.155,0,0,1,.21.33.99.99,0,0,1-.21,1.09Zm.21-8.33a1.169,1.169,0,0,1-.21.33.99.99,0,0,1-1.09.21,1.155,1.155,0,0,1-.33-.21,1.169,1.169,0,0,1-.21-.33.943.943,0,0,1,0-.76,1.155,1.155,0,0,1,.21-.33,1.047,1.047,0,0,1,1.42,0,1.155,1.155,0,0,1,.21.33.942.942,0,0,1,0,.76Zm0-8a1.169,1.169,0,0,1-.21.33,1.014,1.014,0,0,1-1.42,0,1.169,1.169,0,0,1-.21-.33.943.943,0,0,1,0-.76,1.032,1.032,0,0,1,.21-.33,1.047,1.047,0,0,1,1.42,0,1.032,1.032,0,0,1,.21.33.942.942,0,0,1,0,.76Zm3,12a.9.9,0,0,1-.54.54A.852.852,0,0,1,26,38a.99.99,0,0,1-1-1,.838.838,0,0,1,.08-.38.9.9,0,0,1,.54-.54,1,1,0,0,1,1.09.21A1.05,1.05,0,0,1,27,37,.852.852,0,0,1,26.92,37.38Zm-.21-7.67a1.014,1.014,0,0,1-1.42,0,1.523,1.523,0,0,1-.221-.33A1,1,0,0,1,25,29a1,1,0,0,1,1.71-.71,1.032,1.032,0,0,1,.21.33.99.99,0,0,1-.21,1.09Zm3,12a1.169,1.169,0,0,1-.33.21A.99.99,0,0,1,28,41a.838.838,0,0,1,.08-.38,1.155,1.155,0,0,1,.21-.33,1.032,1.032,0,0,1,.33-.21,1.017,1.017,0,0,1,1.09.21,1.155,1.155,0,0,1,.21.33.99.99,0,0,1-.21,1.09Zm.21-8.33a.9.9,0,0,1-.54.54.942.942,0,0,1-.76,0,1.155,1.155,0,0,1-.33-.21,1.169,1.169,0,0,1-.21-.33.943.943,0,0,1,0-.76,1.155,1.155,0,0,1,.21-.33,1.047,1.047,0,0,1,1.42,0,1.155,1.155,0,0,1,.21.33.942.942,0,0,1,0,.76Zm0-8a1.169,1.169,0,0,1-.21.33,1.014,1.014,0,0,1-1.42,0,1.169,1.169,0,0,1-.21-.33A.838.838,0,0,1,28,25a1,1,0,0,1,.08-.38.968.968,0,0,1,1.3-.54A.96.96,0,0,1,30,25,1,1,0,0,1,29.92,25.38Z"/><path d="M38,34a4,4,0,0,0-4,4V51a1,1,0,0,1-1,1H13a1,1,0,0,1-1-1V38a4,4,0,1,0-4.8,3.92A1,1,0,0,1,8,42.9V56H38V42.9a1,1,0,0,1,.8-.979A4,4,0,0,0,38,34Z"/><polygon points="10.781 60 12.219 60 12.719 58 10.281 58 10.781 60"/><polygon points="33.781 60 35.219 60 35.719 58 33.281 58 33.781 60"/><path d="M56,59v1H46V59a1,1,0,0,1,1-1h8A1,1,0,0,1,56,59ZM43.883,4H58.117l1.75,14H42.133Z"/><rect x="50" y="20" width="2" height="36"/></g><text x="0" y="79" fill="#000000" font-size="5px" font-weight="bold" font-family="'Helvetica Neue', Helvetica, Arial-Unicode, Arial, Sans-serif">Created by mynamepong</text><text x="0" y="84" fill="#000000" font-size="5px" font-weight="bold" font-family="'Helvetica Neue', Helvetica, Arial-Unicode, Arial, Sans-serif">from the Noun Project</text></svg>